<?xml version="1.0" standalone="no"?>
<!DOCTYPE svg PUBLIC "-//W3C//DTD SVG 20010904//EN"
 "http://www.w3.org/TR/2001/REC-SVG-20010904/DTD/svg10.dtd">
<svg version="1.0" xmlns="http://www.w3.org/2000/svg"
 width="128.000000pt" height="128.000000pt" viewBox="0 0 128.000000 128.000000"
 preserveAspectRatio="xMidYMid meet">
<metadata>
Created by potrace 1.11, written by Peter Selinger 2001-2013
</metadata>
<g transform="translate(0.000000,128.000000) scale(0.100000,-0.100000)"
fill="#000000" stroke="none">
<path d="M584 1226 c-17 -7 -39 -25 -50 -38 -13 -17 -33 -27 -63 -31 -63 -8
-125 -71 -90 -93 6 -3 24 8 41 26 26 30 33 32 72 27 40 -6 43 -4 60 27 18 34
52 56 86 56 24 0 70 -21 70 -31 0 -5 9 -13 21 -19 15 -9 24 -8 35 1 17 14 69
5 91 -16 8 -9 18 -28 22 -43 11 -40 36 -35 34 7 -1 23 -11 44 -32 65 -27 26
-39 31 -84 32 -32 0 -63 7 -79 18 -37 24 -96 29 -134 12z"/>
<path d="M340 1000 c-31 -31 -27 -140 6 -140 9 0 14 18 16 58 l3 57 95 0 c87
0 95 -2 98 -20 5 -36 36 -65 74 -71 31 -6 41 -2 62 21 14 14 26 36 28 48 2 12
10 22 18 22 12 0 16 -17 18 -77 l3 -78 -213 -2 -213 -3 1 -35 c0 -44 7 -78 29
-158 18 -62 18 -63 -4 -85 -23 -26 -26 -48 -10 -79 8 -14 8 -23 0 -31 -15 -15
-14 -60 1 -75 9 -9 9 -15 0 -24 -33 -33 7 -108 57 -108 24 0 25 -13 5 -106 -5
-25 -1 -37 15 -53 20 -20 31 -21 209 -21 176 0 190 1 210 20 25 23 26 29 11
85 -5 22 -12 85 -14 140 -5 123 15 212 49 217 12 2 21 10 21 18 0 12 -18 16
-88 18 -82 3 -89 4 -99 27 -20 45 1 55 119 55 57 0 113 -4 123 -10 10 -5 23
-23 29 -40 l10 -31 83 3 c66 2 83 6 83 18 0 12 -15 16 -67 18 -62 3 -69 5 -84
32 -17 28 -52 50 -80 50 -13 0 -14 8 -8 43 4 23 8 58 8 77 1 32 -1 35 -32 38
l-33 3 3 77 c2 61 6 77 18 77 11 0 16 -15 20 -55 4 -40 9 -55 20 -55 11 0 16
14 18 57 2 47 -1 61 -18 78 -25 25 -51 26 -79 3 -18 -16 -21 -31 -23 -108 -2
-72 -6 -90 -18 -90 -12 0 -16 19 -20 93 -5 98 -17 122 -62 122 -23 0 -58 -35
-58 -58 0 -23 -19 -42 -42 -42 -11 0 -26 17 -40 48 l-23 47 -107 3 c-97 2
-109 1 -128 -18z m195 -501 c10 -29 -9 -39 -75 -39 -66 0 -85 10 -75 39 6 19
14 21 75 21 61 0 69 -2 75 -21z m-1 -94 c13 -35 -4 -45 -74 -45 -61 0 -69 2
-75 21 -10 30 9 39 81 39 46 0 63 -4 68 -15z m0 -100 c14 -36 -4 -46 -78 -43
-60 3 -71 6 -74 22 -6 27 15 36 84 36 46 0 63 -4 68 -15z"/>
<path d="M996 266 c-10 -25 -23 -37 -43 -41 -48 -11 -55 -15 -51 -28 12 -35
94 -13 121 33 16 27 23 29 85 32 52 2 67 6 67 18 0 12 -17 16 -82 18 l-82 3
-15 -35z"/>
</g>
</svg>
